Mailpile-Old.ufo
<glyph name="exclam" format="1">
  <advance width="575"/>
  <unicode hex="0021"/>
  <outline>
    <contour>
      <point x="347" y="360" type="line"/>
      <point x="238" y="360" type="line"/>
      <point x="212" y="1495" type="line"/>
      <point x="381" y="1495" type="line"/>
    </contour>
    <contour>
      <point x="287" y="-16" type="qcurve" smooth="yes"/>
      <point x="244" y="-16"/>
      <point x="178" y="47"/>
      <point x="178" y="90" type="qcurve" smooth="yes"/>
      <point x="178" y="135"/>
      <point x="244" y="201"/>
      <point x="287" y="201" type="qcurve" smooth="yes"/>
      <point x="332" y="201"/>
      <point x="395" y="135"/>
      <point x="395" y="90" type="qcurve" smooth="yes"/>
      <point x="395" y="47"/>
      <point x="332" y="-16"/>
    </contour>
  </outline>
</glyph>
<glyph name="quotedbl" format="1">
  <advance width="811"/>
  <unicode hex="0022"/>
  <outline>
    <contour>
      <point x="226" y="1084" type="line"/>
      <point x="95" y="1084" type="line"/>
      <point x="253" y="1495" type="line"/>
      <point x="386" y="1495" type="line"/>
    </contour>
    <contour>
      <point x="514" y="1085" type="line"/>
      <point x="381" y="1085" type="line"/>
      <point x="540" y="1495" type="line"/>
      <point x="673" y="1495" type="line"/>
    </contour>
  </outline>
</glyph>
<glyph name="dollar" format="1">
  <advance width="1116"/>
  <unicode hex="0024"/>
  <outline>
    <contour>
      <point x="1015" y="382" type="qcurve" smooth="yes"/>
      <point x="1015" y="555"/>
      <point x="785" y="745"/>
      <point x="646" y="808" type="qcurve"/>
      <point x="646" y="1375" type="line"/>
      <point x="730" y="1365"/>
      <point x="852" y="1296"/>
      <point x="852" y="1238" type="qcurve" smooth="yes"/>
      <point x="852" y="1193" type="line"/>
      <point x="982" y="1193" type="line"/>
      <point x="982" y="1247" type="line" smooth="yes"/>
      <point x="982" y="1357"/>
      <point x="755" y="1494"/>
      <point x="646" y="1495" type="qcurve"/>
      <point x="646" y="1625" type="line"/>
      <point x="646" y="1625"/>
      <point x="508" y="1625"/>
      <point x="508" y="1625" type="qcurve"/>
      <point x="508" y="1495" type="line"/>
      <point x="340" y="1473"/>
      <point x="138" y="1279"/>
      <point x="138" y="1155" type="qcurve" smooth="yes"/>
      <point x="138" y="1011"/>
      <point x="370" y="800"/>
      <point x="508" y="736" type="qcurve"/>
      <point x="508" y="120" type="line"/>
      <point x="355" y="157"/>
      <point x="191" y="353"/>
      <point x="191" y="353" type="qcurve"/>
      <point x="92" y="272" type="line"/>
      <point x="92" y="272"/>
      <point x="302" y="31"/>
      <point x="508" y="0" type="qcurve"/>
      <point x="508" y="-130" type="line"/>
      <point x="508" y="-130"/>
      <point x="646" y="-130"/>
      <point x="646" y="-130" type="qcurve"/>
      <point x="646" y="0" type="line"/>
      <point x="820" y="21"/>
      <point x="1015" y="237"/>
    </contour>
    <contour>
      <point x="646" y="120" type="qcurve"/>
      <point x="646" y="670" type="line"/>
      <point x="739" y="622"/>
      <point x="893" y="483"/>
      <point x="893" y="382" type="qcurve" smooth="yes"/>
      <point x="893" y="288"/>
      <point x="750" y="139"/>
    </contour>
    <contour>
      <point x="268" y="1156" type="qcurve" smooth="yes"/>
      <point x="268" y="1234"/>
      <point x="404" y="1355"/>
      <point x="508" y="1375" type="qcurve"/>
      <point x="508" y="871" type="line"/>
      <point x="417" y="917"/>
      <point x="268" y="1061"/>
    </contour>
  </outline>
</glyph>
<glyph name="percent" format="1">
  <advance width="1825"/>
  <unicode hex="0025"/>
  <outline>
    <contour>
      <point x="1719" y="526"/>
      <point x="1479" y="763"/>
      <point x="1322" y="763" type="qcurve" smooth="yes"/>
      <point x="1169" y="763"/>
      <point x="925" y="527"/>
      <point x="925" y="366" type="qcurve" smooth="yes"/>
      <point x="925" y="210"/>
      <point x="1166" y="-31"/>
      <point x="1322" y="-31" type="qcurve" smooth="yes"/>
      <point x="1482" y="-31"/>
      <point x="1719" y="210"/>
      <point x="1719" y="366" type="qcurve" smooth="yes"/>
    </contour>
    <contour>
      <point x="1581" y="1610" type="line"/>
      <point x="210" y="38" type="line"/>
      <point x="298" y="-54" type="line"/>
      <point x="1682" y="1530" type="line"/>
    </contour>
    <contour>
      <point x="225" y="1232"/>
      <point x="396" y="1402"/>
      <point x="502" y="1402" type="qcurve" smooth="yes"/>
      <point x="610" y="1402"/>
      <point x="779" y="1232"/>
      <point x="779" y="1124" type="qcurve" smooth="yes"/>
      <point x="779" y="1018"/>
      <point x="610" y="847"/>
      <point x="502" y="847" type="qcurve" smooth="yes"/>
      <point x="396" y="847"/>
      <point x="225" y="1018"/>
      <point x="225" y="1124" type="qcurve" smooth="yes"/>
    </contour>
    <contour>
      <point x="1599" y="258"/>
      <point x="1430" y="89"/>
      <point x="1322" y="89" type="qcurve" smooth="yes"/>
      <point x="1213" y="89"/>
      <point x="1045" y="259"/>
      <point x="1045" y="366" type="qcurve" smooth="yes"/>
      <point x="1045" y="471"/>
      <point x="1213" y="643"/>
      <point x="1322" y="643" type="qcurve" smooth="yes"/>
      <point x="1430" y="643"/>
      <point x="1599" y="472"/>
      <point x="1599" y="366" type="qcurve" smooth="yes"/>
    </contour>
    <contour>
      <point x="105" y="970"/>
      <point x="340" y="728"/>
      <point x="502" y="728" type="qcurve" smooth="yes"/>
      <point x="656" y="728"/>
      <point x="899" y="965"/>
      <point x="899" y="1124" type="qcurve" smooth="yes"/>
      <point x="899" y="1282"/>
      <point x="656" y="1521"/>
      <point x="502" y="1521" type="qcurve" smooth="yes"/>
      <point x="338" y="1521"/>
      <point x="105" y="1275"/>
      <point x="105" y="1124" type="qcurve" smooth="yes"/>
    </contour>
  </outline>
</glyph>
<glyph name="parenleft" format="1">
  <advance width="650"/>
  <unicode hex="0028"/>
  <outline>
    <contour>
      <point x="540" y="-46" type="qcurve"/>
      <point x="461" y="-151" type="line"/>
      <point x="296" y="-5"/>
      <point x="106" y="409"/>
      <point x="106" y="748" type="qcurve" smooth="yes"/>
      <point x="106" y="1087"/>
      <point x="316" y="1537"/>
      <point x="476" y="1640" type="qcurve"/>
      <point x="536" y="1522" type="line"/>
      <point x="395" y="1405"/>
      <point x="226" y="1019"/>
      <point x="226" y="747" type="qcurve" smooth="yes"/>
      <point x="226" y="474"/>
      <point x="399" y="71"/>
    </contour>
  </outline>
</glyph>
<glyph name="parenright" format="1">
  <advance width="600"/>
  <unicode hex="0029"/>
  <outline>
    <contour>
      <point x="139" y="-151" type="qcurve"/>
      <point x="67" y="-46" type="line"/>
      <point x="208" y="71"/>
      <point x="370" y="475"/>
      <point x="370" y="748" type="qcurve" smooth="yes"/>
      <point x="370" y="1020"/>
      <point x="208" y="1405"/>
      <point x="67" y="1522" type="qcurve"/>
      <point x="125" y="1640" type="line"/>
      <point x="269" y="1528"/>
      <point x="488" y="1089"/>
      <point x="490" y="748" type="qcurve" smooth="yes"/>
      <point x="492" y="429"/>
      <point x="242" y="-80"/>
    </contour>
  </outline>
</glyph>
<glyph name="period" format="1">
  <advance width="537"/>
  <unicode hex="002E"/>
  <outline>
    <contour>
      <point x="266" y="-16" type="qcurve" smooth="yes"/>
      <point x="221" y="-16"/>
      <point x="156" y="49"/>
      <point x="156" y="94" type="qcurve" smooth="yes"/>
      <point x="156" y="141"/>
      <point x="223" y="209"/>
      <point x="268" y="209" type="qcurve" smooth="yes"/>
      <point x="313" y="209"/>
      <point x="381" y="141"/>
      <point x="381" y="96" type="qcurve" smooth="yes"/>
      <point x="381" y="51"/>
      <point x="313" y="-16"/>
    </contour>
  </outline>
</glyph>
<glyph name="one" format="1">
  <advance width="897"/>
  <unicode hex="0031"/>
  <outline>
    <contour>
      <point x="842" y="0" type="line"/>
      <point x="100" y="0" type="line"/>
      <point x="100" y="130" type="line"/>
      <point x="405" y="130" type="line"/>
      <point x="405" y="1332" type="line"/>
      <point x="163" y="1246" type="line"/>
      <point x="98" y="1372" type="line"/>
      <point x="441" y="1495" type="line"/>
      <point x="548" y="1495" type="line"/>
      <point x="548" y="130" type="line"/>
      <point x="842" y="130" type="line"/>
    </contour>
  </outline>
</glyph>
<glyph name="two" format="1">
  <advance width="1258"/>
  <unicode hex="0032"/>
  <outline>
    <contour>
      <point x="985" y="130" type="line"/>
      <point x="985" y="260" type="line"/>
      <point x="1121" y="260" type="line"/>
      <point x="1121" y="0" type="line"/>
      <point x="209" y="0" type="line" smooth="yes"/>
      <point x="151" y="0"/>
      <point x="126" y="111"/>
      <point x="192" y="177" type="qcurve" smooth="yes"/>
      <point x="221" y="206"/>
      <point x="723" y="729"/>
      <point x="723" y="729" type="qcurve"/>
      <point x="848.361096779" y="858.405003127"/>
      <point x="952" y="1037"/>
      <point x="952" y="1140" type="qcurve" smooth="yes"/>
      <point x="952" y="1250"/>
      <point x="776" y="1390"/>
      <point x="626" y="1390" type="qcurve" smooth="yes"/>
      <point x="510" y="1390"/>
      <point x="317" y="1274"/>
      <point x="294" y="1166" type="qcurve"/>
      <point x="294" y="1085" type="line"/>
      <point x="158" y="1085" type="line"/>
      <point x="158" y="1198" type="line"/>
      <point x="165.241381556" y="1318.68969261"/>
      <point x="436" y="1516"/>
      <point x="624" y="1516" type="qcurve" smooth="yes"/>
      <point x="845" y="1516"/>
      <point x="1081" y="1308"/>
      <point x="1081" y="1140" type="qcurve" smooth="yes"/>
      <point x="1081" y="1008"/>
      <point x="947" y="779"/>
      <point x="811" y="635" type="qcurve" smooth="yes"/>
      <point x="336" y="130" type="line"/>
    </contour>
  </outline>
</glyph>
<glyph name="nine" format="1">
  <advance width="1282"/>
  <unicode hex="0039"/>
  <outline>
    <contour>
      <point x="1137.0" y="201.307465504"/>
      <point x="502" y="-114"/>
      <point x="152" y="109" type="qcurve"/>
      <point x="224" y="217" type="line"/>
      <point x="520" y="16"/>
      <point x="1021" y="325"/>
      <point x="1012" y="769" type="qcurve"/>
      <point x="917" y="695" name="inserted"/>
      <point x="688" y="582"/>
      <point x="584" y="582" type="qcurve" smooth="yes"/>
      <point x="379.757446256" y="582.0"/>
      <point x="123.0" y="843.107894015"/>
      <point x="123" y="1063" type="qcurve" smooth="yes"/>
      <point x="123" y="1280"/>
      <point x="385" y="1516"/>
      <point x="627" y="1516" type="qcurve" smooth="yes"/>
      <point x="868" y="1516"/>
      <point x="1137.0" y="1161.0"/>
      <point x="1137.0" y="821.0" type="qcurve" smooth="yes"/>
    </contour>
    <contour>
      <point x="588" y="705" type="qcurve" smooth="yes"/>
      <point x="689" y="705" name="inserted"/>
      <point x="912" y="841"/>
      <point x="1004" y="915" type="qcurve"/>
      <point x="1000" y="1163"/>
      <point x="786" y="1397"/>
      <point x="623" y="1397" type="qcurve" smooth="yes"/>
      <point x="461" y="1397"/>
      <point x="247" y="1207"/>
      <point x="247" y="1048" type="qcurve" smooth="yes"/>
      <point x="247" y="888"/>
      <point x="453" y="705"/>
    </contour>
  </outline>
</glyph>
<glyph name="colon" format="1">
  <advance width="537"/>
  <unicode hex="003A"/>
  <outline>
    <contour>
      <point x="266.0" y="-16.0" type="qcurve" smooth="yes"/>
      <point x="221.0" y="-16.0"/>
      <point x="156.0" y="49.0"/>
      <point x="156.0" y="94.0" type="qcurve" smooth="yes"/>
      <point x="156.0" y="141.0"/>
      <point x="223.0" y="209.0"/>
      <point x="268.0" y="209.0" type="qcurve" smooth="yes"/>
      <point x="313.0" y="209.0"/>
      <point x="381.0" y="141.0"/>
      <point x="381.0" y="96.0" type="qcurve" smooth="yes"/>
      <point x="381.0" y="51.0"/>
      <point x="313.0" y="-16.0"/>
    </contour>
    <contour>
      <point x="266.0" y="885.0" type="qcurve" smooth="yes"/>
      <point x="221.0" y="885.0"/>
      <point x="156.0" y="950.0"/>
      <point x="156.0" y="995.0" type="qcurve" smooth="yes"/>
      <point x="156.0" y="1042.0"/>
      <point x="223.0" y="1110.0"/>
      <point x="268.0" y="1110.0" type="qcurve" smooth="yes"/>
      <point x="313.0" y="1110.0"/>
      <point x="381.0" y="1042.0"/>
      <point x="381.0" y="997.0" type="qcurve" smooth="yes"/>
      <point x="381.0" y="952.0"/>
      <point x="313.0" y="885.0"/>
    </contour>
  </outline>
</glyph>
<glyph name="greater" format="1">
  <advance width="1196"/>
  <unicode hex="003E"/>
  <outline>
    <contour>
      <point x="877" y="745" type="line"/>
      <point x="195" y="1028" type="line"/>
      <point x="195" y="1176" type="line"/>
      <point x="1001" y="829" type="line"/>
      <point x="1001" y="662" type="line"/>
      <point x="195" y="315" type="line"/>
      <point x="195" y="463" type="line"/>
    </contour>
  </outline>
</glyph>
<glyph name="at" format="1">
  <advance width="2137"/>
  <unicode hex="0040"/>
  <outline>
    <contour>
      <point x="1382" y="489" type="line" smooth="yes"/>
      <point x="1382" y="437"/>
      <point x="1337" y="304"/>
      <point x="1291" y="232" type="qcurve" smooth="yes"/>
      <point x="1245" y="160"/>
      <point x="1115" y="93"/>
      <point x="1033" y="91" type="qcurve" smooth="yes"/>
      <point x="946" y="91"/>
      <point x="829" y="117"/>
      <point x="799" y="143" type="qcurve" smooth="yes"/>
      <point x="769" y="170"/>
      <point x="741" y="264"/>
      <point x="742" y="332" type="qcurve"/>
      <point x="736" y="470"/>
      <point x="1006" y="573"/>
      <point x="1241" y="567" type="qcurve" smooth="yes"/>
      <point x="1382" y="567" type="line"/>
    </contour>
    <contour>
      <point x="1610" y="124" type="line" smooth="yes"/>
      <point x="1570" y="124"/>
      <point x="1517" y="160"/>
      <point x="1517" y="210" type="qcurve" smooth="yes"/>
      <point x="1517" y="746" type="line" smooth="yes"/>
      <point x="1517" y="955"/>
      <point x="1327" y="1115"/>
      <point x="1118" y="1115" type="qcurve" smooth="yes"/>
      <point x="868" y="1115"/>
      <point x="697" y="986"/>
      <point x="697" y="922" type="qcurve" smooth="yes"/>
      <point x="697" y="829" type="line"/>
      <point x="835" y="829" type="line"/>
      <point x="835" y="880" type="line" smooth="yes"/>
      <point x="835" y="940"/>
      <point x="931" y="1000"/>
      <point x="1118" y="1000" type="qcurve" smooth="yes"/>
      <point x="1332" y="1000"/>
      <point x="1382" y="796"/>
      <point x="1382" y="687" type="qcurve"/>
      <point x="1239" y="687" type="line" smooth="yes"/>
      <point x="944" y="687"/>
      <point x="615" y="532"/>
      <point x="615" y="331" type="qcurve" smooth="yes"/>
      <point x="615" y="120"/>
      <point x="834" y="-43"/>
      <point x="1037" y="-31" type="qcurve" smooth="yes"/>
      <point x="1170" y="-24"/>
      <point x="1311" y="55"/>
      <point x="1345" y="98" type="qcurve" smooth="yes"/>
      <point x="1374" y="134"/>
      <point x="1391" y="171"/>
      <point x="1402" y="194" type="qcurve"/>
      <point x="1401" y="136"/>
      <point x="1450" y="0"/>
      <point x="1562" y="0" type="qcurve" smooth="yes"/>
      <point x="1624" y="0" type="line"/>
      <point x="1624" y="124" type="line"/>
    </contour>
    <contour>
      <point x="1631" y="1577"/>
      <point x="2107" y="980"/>
      <point x="2107" y="607" type="qcurve" smooth="yes"/>
      <point x="2107" y="377"/>
      <point x="1869" y="22"/>
      <point x="1625" y="0" type="qcurve"/>
      <point x="1625" y="124" type="line"/>
      <point x="1769" y="124"/>
      <point x="1968" y="395"/>
      <point x="1968" y="607" type="qcurve" smooth="yes"/>
      <point x="1968" y="923"/>
      <point x="1548" y="1449"/>
      <point x="1132" y="1449" type="qcurve" smooth="yes"/>
      <point x="722" y="1449"/>
      <point x="218" y="874"/>
      <point x="218" y="491" type="qcurve" smooth="yes"/>
      <point x="218" y="134"/>
      <point x="709" y="-350"/>
      <point x="1049" y="-338" type="qcurve"/>
      <point x="1225" y="-338" name="inserted"/>
      <point x="1430" y="-267"/>
      <point x="1551" y="-172" type="qcurve"/>
      <point x="1634" y="-283" type="line"/>
      <point x="1499" y="-383" name="inserted"/>
      <point x="1248" y="-472"/>
      <point x="1042" y="-472" type="qcurve" smooth="yes"/>
      <point x="582" y="-472"/>
      <point x="77" y="118"/>
      <point x="77" y="494" type="qcurve" smooth="yes"/>
      <point x="77" y="914"/>
      <point x="622" y="1577"/>
      <point x="1134" y="1577" type="qcurve" smooth="yes"/>
    </contour>
  </outline>
</glyph>
<glyph name="A" format="1">
  <advance width="1307"/>
  <unicode hex="0041"/>
  <outline>
    <contour>
      <point x="155" y="0" type="qcurve" smooth="yes"/>
      <point x="-9" y="0" type="line"/>
      <point x="-9" y="130" type="line"/>
      <point x="118" y="130" type="line"/>
      <point x="557" y="1495" type="line"/>
      <point x="758" y="1495" type="line"/>
      <point x="1199" y="130" type="line"/>
      <point x="1316" y="130" type="line"/>
      <point x="1316" y="0" type="line"/>
      <point x="1161" y="0" type="line" smooth="yes"/>
      <point x="1133" y="0" name="inserted"/>
      <point x="1091" y="27"/>
      <point x="1082" y="53" type="qcurve" smooth="yes"/>
      <point x="936" y="476" type="line"/>
      <point x="375" y="476" type="line"/>
      <point x="234" y="53" type="line" smooth="yes"/>
      <point x="225" y="26" name="inserted"/>
      <point x="183" y="0"/>
    </contour>
    <contour>
      <point x="661" y="1368" type="line"/>
      <point x="650" y="1368" type="line"/>
      <point x="413" y="606" type="line"/>
      <point x="905" y="606" type="line"/>
    </contour>
  </outline>
</glyph>
<glyph name="E" format="1">
  <advance width="1167"/>
  <unicode hex="0045"/>
  <outline>
    <contour>
      <point x="98" y="1495" type="line"/>
      <point x="1009" y="1495" type="line" smooth="yes"/>
      <point x="1040" y="1495" name="inserted"/>
      <point x="1070" y="1464"/>
      <point x="1070" y="1432" type="qcurve" smooth="yes"/>
      <point x="1070" y="1235" type="line"/>
      <point x="932" y="1235" type="line"/>
      <point x="932" y="1365" type="line"/>
      <point x="373" y="1365" type="line"/>
      <point x="373" y="824" type="line"/>
      <point x="955" y="824" type="line"/>
      <point x="955" y="694" type="line"/>
      <point x="373" y="694" type="line"/>
      <point x="373" y="130" type="line"/>
      <point x="932" y="130" type="line"/>
      <point x="932" y="260" type="line"/>
      <point x="1070" y="260" type="line"/>
      <point x="1070" y="63" type="line" smooth="yes"/>
      <point x="1070" y="32" name="inserted"/>
      <point x="1038" y="0"/>
      <point x="1006" y="0" type="qcurve" smooth="yes"/>
      <point x="234" y="0" type="line"/>
      <point x="234" y="0"/>
      <point x="234" y="1365"/>
      <point x="234" y="1365" type="qcurve"/>
      <point x="98" y="1365" type="line"/>
    </contour>
  </outline>
</glyph>
<glyph name="H" format="1">
  <advance width="1551"/>
  <unicode hex="0048"/>
  <outline>
    <contour>
      <point x="1303" y="0" type="qcurve"/>
      <point x="1157" y="0" type="line"/>
      <point x="1157" y="694" type="line"/>
      <point x="392" y="694" type="line"/>
      <point x="392" y="0" type="line" smooth="yes"/>
      <point x="246" y="0" type="line"/>
      <point x="246" y="0"/>
      <point x="246" y="1365"/>
      <point x="246" y="1365" type="qcurve"/>
      <point x="120" y="1365" type="line"/>
      <point x="120" y="1495" type="line"/>
      <point x="329" y="1495" type="line" smooth="yes"/>
      <point x="361" y="1495" name="inserted"/>
      <point x="392" y="1464"/>
      <point x="392" y="1432" type="qcurve" smooth="yes"/>
      <point x="392" y="824" type="line"/>
      <point x="1157" y="824" type="line"/>
      <point x="1157" y="1432" type="line" smooth="yes"/>
      <point x="1157" y="1464" name="inserted"/>
      <point x="1189" y="1495"/>
      <point x="1220" y="1495" type="qcurve" smooth="yes"/>
      <point x="1430" y="1495" type="line"/>
      <point x="1430" y="1365" type="line"/>
      <point x="1303" y="1365" type="line"/>
      <point x="1303" y="1365"/>
      <point x="1303" y="0"/>
    </contour>
  </outline>
</glyph>
<glyph name="I" format="1">
  <advance width="698"/>
  <unicode hex="0049"/>
  <outline>
    <contour>
      <point x="558" y="0" type="line"/>
      <point x="140" y="0" type="line"/>
      <point x="140" y="130" type="line"/>
      <point x="276" y="130" type="line"/>
      <point x="276" y="1365" type="line"/>
      <point x="140" y="1365" type="line"/>
      <point x="140" y="1495" type="line"/>
      <point x="558" y="1495" type="line"/>
      <point x="558" y="1365" type="line"/>
      <point x="422" y="1365" type="line"/>
      <point x="422" y="130" type="line"/>
      <point x="558" y="130" type="line"/>
    </contour>
  </outline>
</glyph>
<glyph name="K" format="1">
  <advance width="1343"/>
  <unicode hex="004B"/>
  <outline>
    <contour>
      <point x="1265" y="0" type="line"/>
      <point x="1105" y="0" type="line" smooth="yes"/>
      <point x="1082" y="0" name="inserted"/>
      <point x="1033" y="30"/>
      <point x="1018" y="50" type="qcurve"/>
      <point x="604" y="694" type="line"/>
      <point x="418" y="694" type="line"/>
      <point x="418" y="0" type="line" smooth="yes"/>
      <point x="272" y="0" type="line"/>
      <point x="272" y="1365" type="line"/>
      <point x="136" y="1365" type="line"/>
      <point x="136" y="1495" type="line"/>
      <point x="349" y="1495" type="line" smooth="yes"/>
      <point x="381" y="1495" name="inserted"/>
      <point x="418" y="1458"/>
      <point x="418" y="1426" type="qcurve"/>
      <point x="418" y="824" type="line"/>
      <point x="612" y="824" type="line"/>
      <point x="1107" y="1495" type="line" smooth="yes"/>
      <point x="1263" y="1495" type="line"/>
      <point x="1263" y="1495"/>
      <point x="731" y="754"/>
      <point x="731" y="754" type="qcurve"/>
      <point x="1130" y="130" type="line"/>
      <point x="1265" y="130" type="line"/>
    </contour>
  </outline>
</glyph>
<glyph name="L" format="1">
  <advance width="1027"/>
  <unicode hex="004C"/>
  <outline>
    <contour>
      <point x="418" y="130" type="line"/>
      <point x="882" y="130" type="line"/>
      <point x="882" y="260" type="line"/>
      <point x="1006" y="260" type="line"/>
      <point x="1006" y="63" type="line" smooth="yes"/>
      <point x="1006" y="32" name="inserted"/>
      <point x="975" y="0"/>
      <point x="943" y="0" type="qcurve" smooth="yes"/>
      <point x="272" y="0" type="line"/>
      <point x="272" y="0"/>
      <point x="272" y="1365"/>
      <point x="272" y="1365" type="qcurve"/>
      <point x="136" y="1365" type="line"/>
      <point x="136" y="1495" type="line"/>
      <point x="418" y="1495" type="line"/>
    </contour>
  </outline>
</glyph>
<glyph name="N" format="1">
  <advance width="1584"/>
  <unicode hex="004E"/>
  <outline>
    <contour>
      <point x="1328" y="0" type="line"/>
      <point x="1190" y="0" type="line" smooth="yes"/>
      <point x="1164" y="0" name="inserted"/>
      <point x="1125" y="21"/>
      <point x="1114" y="41" type="qcurve" smooth="yes"/>
      <point x="418" y="1272" type="line" smooth="yes"/>
      <point x="418" y="63" type="line" smooth="yes"/>
      <point x="418" y="32" name="inserted"/>
      <point x="387" y="0"/>
      <point x="355" y="0" type="qcurve"/>
      <point x="136" y="0" type="line"/>
      <point x="136" y="130" type="line"/>
      <point x="272" y="130" type="line"/>
      <point x="272" y="1495" type="line"/>
      <point x="412" y="1495" type="line"/>
      <point x="434" y="1493"/>
      <point x="475" y="1475"/>
      <point x="487" y="1454" type="qcurve" smooth="yes"/>
      <point x="1182" y="223" type="line" smooth="yes"/>
      <point x="1182" y="1432" type="line" smooth="yes"/>
      <point x="1182" y="1464" name="inserted"/>
      <point x="1213" y="1495"/>
      <point x="1244" y="1495" type="qcurve" smooth="yes"/>
      <point x="1464" y="1495" type="line"/>
      <point x="1464" y="1365" type="line"/>
      <point x="1328" y="1365" type="line"/>
    </contour>
  </outline>
</glyph>
<glyph name="P" format="1">
  <advance width="1252"/>
  <unicode hex="0050"/>
  <outline>
    <contour>
      <point x="393" y="1365" type="line"/>
      <point x="393" y="764" type="line"/>
      <point x="702" y="764" type="line" smooth="yes"/>
      <point x="862" y="764" name="inserted"/>
      <point x="1010" y="911"/>
      <point x="1010" y="1084" type="qcurve" smooth="yes"/>
      <point x="1010" y="1257" name="inserted"/>
      <point x="862" y="1365"/>
      <point x="702" y="1365" type="qcurve" smooth="yes"/>
    </contour>
    <contour>
      <point x="392" y="0" type="qcurve"/>
      <point x="246" y="0" type="line"/>
      <point x="246" y="1365" type="line"/>
      <point x="110" y="1365" type="line"/>
      <point x="110" y="1495" type="line"/>
      <point x="702" y="1495" type="line" smooth="yes"/>
      <point x="934" y="1495"/>
      <point x="1156" y="1294"/>
      <point x="1156" y="1084" type="qcurve" smooth="yes"/>
      <point x="1156" y="870"/>
      <point x="932" y="631"/>
      <point x="702" y="631" type="qcurve" smooth="yes"/>
      <point x="392" y="631" type="line"/>
      <point x="392" y="631"/>
      <point x="392" y="0"/>
    </contour>
  </outline>
</glyph>
<glyph name="W" format="1">
  <advance width="2005"/>
  <unicode hex="0057"/>
  <outline>
    <contour>
      <point x="1773" y="1495" type="qcurve" smooth="yes"/>
      <point x="1966" y="1495" type="line"/>
      <point x="1966" y="1365.0" type="line"/>
      <point x="1830" y="1365.0" type="line"/>
      <point x="1531" y="0" type="line"/>
      <point x="1306" y="0" type="line"/>
      <point x="1002" y="1344" type="line"/>
      <point x="699" y="0" type="line"/>
      <point x="474" y="0" type="line"/>
      <point x="175" y="1365.0" type="line"/>
      <point x="39" y="1365.0" type="line"/>
      <point x="39" y="1495" type="line"/>
      <point x="232" y="1495" type="line" smooth="yes"/>
      <point x="261" y="1495" name="inserted"/>
      <point x="296" y="1469"/>
      <point x="302" y="1442" type="qcurve" smooth="yes"/>
      <point x="574" y="146" type="line"/>
      <point x="585" y="146" type="line"/>
      <point x="892" y="1430" type="line" smooth="yes"/>
      <point x="899" y="1461" name="inserted"/>
      <point x="929" y="1495"/>
      <point x="961" y="1495" type="qcurve" smooth="yes"/>
      <point x="1043" y="1495" type="line" smooth="yes"/>
      <point x="1076" y="1495" name="inserted"/>
      <point x="1106" y="1461"/>
      <point x="1113" y="1430" type="qcurve" smooth="yes"/>
      <point x="1422" y="146" type="line"/>
      <point x="1430" y="146" type="line"/>
      <point x="1701" y="1442" type="line" smooth="yes"/>
      <point x="1706" y="1469" name="inserted"/>
      <point x="1743" y="1495"/>
    </contour>
  </outline>
</glyph>
<glyph name="Y" format="1">
  <advance width="1299"/>
  <unicode hex="0059"/>
  <outline>
    <contour>
      <point x="733" y="0" type="qcurve"/>
      <point x="587" y="0" type="line"/>
      <point x="587" y="0"/>
      <point x="587" y="539"/>
      <point x="587" y="539" type="qcurve"/>
      <point x="175" y="1365" type="line"/>
      <point x="39" y="1365" type="line"/>
      <point x="39" y="1495" type="line"/>
      <point x="222" y="1495" type="line" smooth="yes"/>
      <point x="251" y="1495" name="inserted"/>
      <point x="287" y="1471"/>
      <point x="298" y="1448" type="qcurve" smooth="yes"/>
      <point x="660" y="674" type="line"/>
      <point x="1001" y="1448" type="line" smooth="yes"/>
      <point x="1012" y="1472" name="inserted"/>
      <point x="1049" y="1495"/>
      <point x="1077" y="1495" type="qcurve" smooth="yes"/>
      <point x="1260" y="1495" type="line"/>
      <point x="1260" y="1365" type="line"/>
      <point x="1124" y="1365" type="line"/>
      <point x="733" y="539" type="line"/>
      <point x="733" y="539"/>
      <point x="733" y="0"/>
    </contour>
  </outline>
</glyph>
<glyph name="grave" format="1">
  <advance width="559"/>
  <unicode hex="0060"/>
  <outline>
    <contour>
      <point x="269" y="1084" type="line"/>
      <point x="125" y="1495" type="line"/>
      <point x="263" y="1495" type="line"/>
      <point x="403" y="1084" type="line"/>
    </contour>
  </outline>
</glyph>
<glyph name="c" format="1">
  <advance width="1155"/>
  <unicode hex="0063"/>
  <note>
    ### RoboToDo ###
    
    ### TODO:
    Make Overshot &amp; Underhang match
    ###
    
    #####
  </note>
  <outline>
    <contour>
      <point x="98" y="302"/>
      <point x="98" y="803"/>
      <point x="262" y="958" type="qcurve" smooth="yes"/>
      <point x="414" y="1103"/>
      <point x="866" y="1122"/>
      <point x="985" y="1027" type="qcurve"/>
      <point x="1025" y="996"/>
      <point x="1066" y="961"/>
      <point x="1066" y="961" type="qcurve"/>
      <point x="979" y="867" type="line"/>
      <point x="979" y="867"/>
      <point x="941" y="899"/>
      <point x="913" y="922" type="qcurve"/>
      <point x="821" y="1000"/>
      <point x="449" y="974"/>
      <point x="355" y="858" type="qcurve"/>
      <point x="230" y="743"/>
      <point x="238" y="370"/>
      <point x="350" y="247" type="qcurve"/>
      <point x="498" y="112"/>
      <point x="848" y="127"/>
      <point x="1024" y="310" type="qcurve"/>
      <point x="1107" y="227" type="line"/>
      <point x="939" y="2"/>
      <point x="424" y="-16"/>
      <point x="263" y="141" type="qcurve" smooth="yes"/>
    </contour>
  </outline>
</glyph>
<glyph name="d" format="1">
  <advance width="1270"/>
  <unicode hex="0064"/>
  <note>
    ### RoboToDo ###
    
    ### DONE:
    Make Overshot &amp; Underhang match
    ###
    
    
    
    #####
  </note>
  <outline>
    <contour>
      <point x="816" y="1495" type="line"/>
      <point x="1023" y="1495" type="line" smooth="yes"/>
      <point x="1058" y="1495"/>
      <point x="1084" y="1464"/>
      <point x="1084" y="1431" type="qcurve" smooth="yes"/>
      <point x="1084" y="210" type="line" smooth="yes"/>
      <point x="1084" y="154" name="inserted"/>
      <point x="1128" y="124"/>
      <point x="1172" y="124" type="qcurve"/>
      <point x="1262" y="124" type="line"/>
      <point x="1262" y="0" type="line"/>
      <point x="1119" y="0" type="line"/>
      <point x="1031" y="0" name="inserted"/>
      <point x="962" y="77"/>
      <point x="963" y="169" type="qcurve"/>
      <point x="895" y="77" name="inserted"/>
      <point x="707" y="-21"/>
      <point x="606" y="-21" type="qcurve" smooth="yes"/>
      <point x="349" y="-21"/>
      <point x="83" y="295"/>
      <point x="81" y="552" type="qcurve" smooth="yes"/>
      <point x="79" y="782"/>
      <point x="349" y="1104"/>
      <point x="605" y="1104" type="qcurve" smooth="yes"/>
      <point x="730" y="1104" name="inserted"/>
      <point x="873" y="1056"/>
      <point x="946" y="1018" type="qcurve"/>
      <point x="946" y="1371" type="line"/>
      <point x="816" y="1371" type="line"/>
    </contour>
    <contour>
      <point x="605" y="979" type="qcurve" smooth="yes"/>
      <point x="443" y="979" name="inserted"/>
      <point x="223" y="768"/>
      <point x="218" y="549" type="qcurve" smooth="yes"/>
      <point x="213" y="348"/>
      <point x="430" y="113"/>
      <point x="605" y="113" type="qcurve" smooth="yes"/>
      <point x="695" y="113" name="inserted"/>
      <point x="924" y="259"/>
      <point x="946" y="380" type="qcurve"/>
      <point x="946" y="876" type="line"/>
      <point x="884" y="911" name="inserted"/>
      <point x="705" y="979"/>
    </contour>
  </outline>
</glyph>
<glyph name="e" format="1">
  <advance width="1180"/>
  <unicode hex="0065"/>
  <note>
    ### RoboToDo ###
    
    ### TODO:
    Make Overshot &amp; Underhang match
    ###
    
    #####
  </note>
  <outline>
    <contour>
      <point x="1130" y="499" type="line"/>
      <point x="184" y="499" type="line"/>
      <point x="206" y="291"/>
      <point x="449" y="92"/>
      <point x="628" y="92" type="qcurve" smooth="yes"/>
      <point x="740" y="92" name="inserted"/>
      <point x="971" y="191"/>
      <point x="1041" y="234" type="qcurve"/>
      <point x="1098" y="126" type="line"/>
      <point x="999" y="70" name="inserted"/>
      <point x="763" y="-30"/>
      <point x="630" y="-30" type="qcurve" smooth="yes"/>
      <point x="329" y="-30"/>
      <point x="50" y="316"/>
      <point x="50" y="549" type="qcurve"/>
      <point x="50" y="818"/>
      <point x="369" y="1128"/>
      <point x="627" y="1128" type="qcurve" smooth="yes"/>
      <point x="847" y="1128"/>
      <point x="1130" y="843"/>
      <point x="1130" y="616" type="qcurve" smooth="yes"/>
    </contour>
    <contour>
      <point x="193" y="619" type="qcurve"/>
      <point x="999" y="619" type="line"/>
      <point x="1001" y="792"/>
      <point x="787" y="1008"/>
      <point x="626" y="1008" type="qcurve" smooth="yes"/>
      <point x="449" y="1008"/>
      <point x="193" y="793"/>
    </contour>
  </outline>
</glyph>
<glyph name="j" format="1">
  <advance width="621"/>
  <unicode hex="006A"/>
  <outline>
    <contour>
      <point x="381" y="1280" type="qcurve" smooth="yes"/>
      <point x="343" y="1280"/>
      <point x="283" y="1337"/>
      <point x="283" y="1375" type="qcurve" smooth="yes"/>
      <point x="283" y="1415"/>
      <point x="343" y="1474"/>
      <point x="381" y="1474" type="qcurve" smooth="yes"/>
      <point x="421" y="1474"/>
      <point x="477" y="1415"/>
      <point x="477" y="1375" type="qcurve" smooth="yes"/>
      <point x="477" y="1337"/>
      <point x="421" y="1280"/>
    </contour>
    <contour>
      <point x="460" y="1019" type="qcurve" smooth="yes"/>
      <point x="460" y="-67" type="line" smooth="yes"/>
      <point x="460" y="-188"/>
      <point x="443" y="-355"/>
      <point x="396" y="-408" type="qcurve" name="inserted"/>
      <point x="340" y="-452"/>
      <point x="237" y="-477"/>
      <point x="125" y="-477" type="qcurve"/>
      <point x="-37" y="-477" type="line"/>
      <point x="-37" y="-340" type="line"/>
      <point x="125" y="-340" type="line"/>
      <point x="192" y="-340"/>
      <point x="265" y="-327"/>
      <point x="291" y="-293" type="qcurve" smooth="yes" name="inserted"/>
      <point x="316" y="-259"/>
      <point x="322" y="-149"/>
      <point x="322" y="-63" type="qcurve" smooth="yes"/>
      <point x="322" y="960" type="line"/>
      <point x="145" y="960" type="line"/>
      <point x="145" y="1084" type="line"/>
      <point x="398" y="1084" type="line" smooth="yes"/>
      <point x="429" y="1084" name="inserted"/>
      <point x="460" y="1051"/>
    </contour>
  </outline>
</glyph>
<glyph name="m" format="1">
  <advance width="2002"/>
  <unicode hex="006D"/>
  <note>
    ### RoboToDo ###
    
    ### TODO:
    Make Overshot match
    ###
    
    #####
  </note>
  <outline>
    <contour>
      <point x="1588" y="210" type="qcurve"/>
      <point x="1588" y="798" type="line" smooth="yes"/>
      <point x="1588" y="905"/>
      <point x="1446" y="995"/>
      <point x="1342" y="995" type="qcurve" smooth="yes"/>
      <point x="1260" y="995" name="inserted"/>
      <point x="1055" y="869"/>
      <point x="1054" y="823" type="qcurve"/>
      <point x="1054" y="0" type="line"/>
      <point x="916" y="0" type="line"/>
      <point x="916" y="763" type="line" smooth="yes"/>
      <point x="916" y="872"/>
      <point x="773" y="993"/>
      <point x="660" y="993" type="qcurve" smooth="yes"/>
      <point x="575" y="993" name="inserted"/>
      <point x="405" y="875"/>
      <point x="383" y="830" type="qcurve"/>
      <point x="383" y="0" type="line"/>
      <point x="245" y="0" type="line"/>
      <point x="245" y="960" type="line"/>
      <point x="115" y="960" type="line"/>
      <point x="115" y="1084" type="line"/>
      <point x="295" y="1084" type="line" smooth="yes"/>
      <point x="327" y="1084" name="inserted"/>
      <point x="365" y="1054"/>
      <point x="365" y="1023" type="qcurve" smooth="yes"/>
      <point x="365" y="984" type="line"/>
      <point x="413" y="1033" name="inserted"/>
      <point x="560" y="1113"/>
      <point x="666" y="1113" type="qcurve" smooth="yes"/>
      <point x="774" y="1113" name="inserted"/>
      <point x="943" y="1034"/>
      <point x="979" y="955" type="qcurve"/>
      <point x="1077" y="1034" name="inserted"/>
      <point x="1251" y="1113"/>
      <point x="1343" y="1113" type="qcurve" smooth="yes"/>
      <point x="1518" y="1113"/>
      <point x="1726" y="933"/>
      <point x="1726" y="782" type="qcurve"/>
      <point x="1726" y="210" type="line"/>
      <point x="1726" y="153" name="inserted"/>
      <point x="1770" y="124"/>
      <point x="1814" y="124" type="qcurve"/>
      <point x="1904" y="124" type="line"/>
      <point x="1904" y="0" type="line"/>
      <point x="1752" y="0" type="line"/>
      <point x="1662" y="0" name="inserted"/>
      <point x="1588" y="84"/>
    </contour>
  </outline>
</glyph>
<glyph name="p" format="1">
  <advance width="1319"/>
  <unicode hex="0070"/>
  <note>
    ### RoboToDo ###
    
    ### TODO:
    Make Overshot &amp; Underhang match
    ###
    
    #####
  </note>
  <outline>
    <contour>
      <point x="698" y="120" type="qcurve" smooth="yes"/>
      <point x="863" y="120" name="inserted"/>
      <point x="1085" y="315"/>
      <point x="1086" y="552" type="qcurve"/>
      <point x="1085" y="764"/>
      <point x="912" y="993"/>
      <point x="715" y="993" type="qcurve" smooth="yes"/>
      <point x="602" y="993" name="inserted"/>
      <point x="415" y="872"/>
      <point x="344" y="778" type="qcurve"/>
      <point x="344" y="233" type="line"/>
      <point x="407" y="198" name="inserted"/>
      <point x="620" y="120"/>
    </contour>
    <contour>
      <point x="75" y="1084" type="line"/>
      <point x="250" y="1084" type="line" smooth="yes"/>
      <point x="282" y="1084" name="inserted"/>
      <point x="318" y="1059"/>
      <point x="318" y="1006" type="qcurve" smooth="yes"/>
      <point x="318" y="925" type="line"/>
      <point x="399" y="1024" name="inserted"/>
      <point x="594" y="1113"/>
      <point x="718" y="1113" type="qcurve" smooth="yes"/>
      <point x="991" y="1113"/>
      <point x="1214" y="794"/>
      <point x="1214" y="553" type="qcurve" smooth="yes"/>
      <point x="1214" y="310"/>
      <point x="965" y="0"/>
      <point x="700" y="0" type="qcurve" smooth="yes"/>
      <point x="628" y="0"/>
      <point x="420" y="60"/>
      <point x="343" y="99" type="qcurve"/>
      <point x="343" y="-477" type="line"/>
      <point x="205" y="-477" type="line"/>
      <point x="205" y="960" type="line"/>
      <point x="75" y="960" type="line"/>
    </contour>
  </outline>
</glyph>
<glyph name="t" format="1">
  <advance width="675"/>
  <unicode hex="0074"/>
  <note>
    ### RoboToDo ###
    
    ### TODO:
    Make Underhang -10, -6, or -4 and hieght of serif match "l, i, j, t"
    ###
    
    #####
  </note>
  <outline>
    <contour>
      <point x="233" y="210" type="qcurve"/>
      <point x="233" y="960" type="line"/>
      <point x="15" y="960" type="line"/>
      <point x="15" y="1084" type="line"/>
      <point x="233" y="1084" type="line"/>
      <point x="233" y="1498" type="line"/>
      <point x="372" y="1498" type="line"/>
      <point x="372" y="1084" type="line"/>
      <point x="595" y="1084" type="line"/>
      <point x="595" y="960" type="line"/>
      <point x="372" y="960" type="line"/>
      <point x="372" y="210" type="line" smooth="yes"/>
      <point x="371" y="210" type="line"/>
      <point x="371" y="153" name="inserted"/>
      <point x="415" y="124"/>
      <point x="459" y="124" type="qcurve"/>
      <point x="549" y="124" type="line"/>
      <point x="549" y="0" type="line"/>
      <point x="397" y="0" type="line"/>
      <point x="307" y="0" name="inserted"/>
      <point x="233" y="84"/>
    </contour>
  </outline>
</glyph>
<glyph name="braceleft" format="1">
  <advance width="677"/>
  <unicode hex="007B"/>
  <outline>
    <contour>
      <point x="356" y="1202" type="qcurve"/>
      <point x="378" y="893" type="line"/>
      <point x="378" y="831"/>
      <point x="346" y="754"/>
      <point x="297" y="750" type="qcurve"/>
      <point x="297" y="745" type="line"/>
      <point x="346" y="741"/>
      <point x="378" y="664"/>
      <point x="378" y="602" type="qcurve"/>
      <point x="356" y="293" type="line"/>
      <point x="356" y="133" name="inserted"/>
      <point x="479" y="-4"/>
      <point x="617" y="0" type="qcurve"/>
      <point x="617" y="-130" type="line"/>
      <point x="405" y="-130" name="inserted"/>
      <point x="231.0" y="68.5"/>
      <point x="231.0" y="276.0" type="qcurve"/>
      <point x="248.0" y="588.0" type="line"/>
      <point x="248.0" y="643.0"/>
      <point x="156" y="694"/>
      <point x="96" y="694" type="qcurve"/>
      <point x="96" y="801" type="line"/>
      <point x="156" y="801"/>
      <point x="248" y="852"/>
      <point x="248" y="907" type="qcurve"/>
      <point x="247" y="924" name="inserted"/>
      <point x="245.0" y="962.5"/>
      <point x="244.0" y="985.0" type="qcurve" smooth="yes"/>
      <point x="242.0" y="1024.0"/>
      <point x="236" y="1141"/>
      <point x="231" y="1219" type="qcurve"/>
      <point x="231" y="1427" name="inserted"/>
      <point x="405" y="1625"/>
      <point x="617" y="1625" type="qcurve"/>
      <point x="617" y="1495" type="line"/>
      <point x="479" y="1499" name="inserted"/>
      <point x="356" y="1362"/>
    </contour>
  </outline>
</glyph>
<glyph name="asciitilde" format="1">
  <advance width="1196"/>
  <unicode hex="007E"/>
  <outline>
    <contour>
      <point x="420" y="832" type="qcurve" smooth="yes"/>
      <point x="564" y="832"/>
      <point x="708" y="677"/>
      <point x="774" y="677" type="qcurve" smooth="yes"/>
      <point x="853" y="677"/>
      <point x="873" y="793"/>
      <point x="873" y="842" type="qcurve"/>
      <point x="1005" y="842" type="line"/>
      <point x="1005" y="696"/>
      <point x="872" y="559"/>
      <point x="773" y="559" type="qcurve" smooth="yes"/>
      <point x="650" y="559"/>
      <point x="513" y="711"/>
      <point x="430" y="711" type="qcurve" smooth="yes"/>
      <point x="347" y="711"/>
      <point x="316" y="598"/>
      <point x="316" y="549" type="qcurve"/>
      <point x="195" y="549" type="line"/>
      <point x="195" y="695"/>
      <point x="321" y="832"/>
    </contour>
  </outline>
</glyph>
<glyph name="exclamdown" format="1">
  <advance width="575"/>
  <unicode hex="00A1"/>
  <outline>
    <contour>
      <point x="223" y="924" type="line"/>
      <point x="345" y="924" type="line"/>
      <point x="372" y="-210" type="line"/>
      <point x="195" y="-210" type="line"/>
    </contour>
    <contour>
      <point x="287" y="1084" type="qcurve" smooth="yes"/>
      <point x="244" y="1084"/>
      <point x="178" y="1150"/>
      <point x="178" y="1193" type="qcurve" smooth="yes"/>
      <point x="178" y="1238"/>
      <point x="244" y="1301"/>
      <point x="287" y="1301" type="qcurve" smooth="yes"/>
      <point x="332" y="1301"/>
      <point x="395" y="1238"/>
      <point x="395" y="1193" type="qcurve" smooth="yes"/>
      <point x="395" y="1150"/>
      <point x="332" y="1084"/>
    </contour>
  </outline>
</glyph>
<glyph name="cent" format="1">
  <advance width="1108"/>
  <unicode hex="00A2"/>
  <outline>
    <contour>
      <point x="625" y="1364" type="qcurve"/>
      <point x="655" y="1712" type="line"/>
      <point x="750" y="1712" type="line"/>
      <point x="719" y="1360" type="line"/>
      <point x="784" y="1352"/>
      <point x="928" y="1309"/>
      <point x="1006" y="1270" type="qcurve"/>
      <point x="952" y="1151" type="line"/>
      <point x="889" y="1186"/>
      <point x="768" y="1227"/>
      <point x="709" y="1235" type="qcurve"/>
      <point x="625" y="260" type="line"/>
      <point x="723.0" y="263.0" name="inserted"/>
      <point x="860.0" y="369.5"/>
      <point x="899" y="473" type="qcurve"/>
      <point x="1030" y="430" type="line"/>
      <point x="972.5" y="282.5" name="inserted"/>
      <point x="763.5" y="135.0"/>
      <point x="612" y="135" type="qcurve"/>
      <point x="584" y="-215" type="line"/>
      <point x="489" y="-215" type="line"/>
      <point x="520" y="141" type="line"/>
      <point x="412" y="160"/>
      <point x="262" y="285"/>
      <point x="215.0" y="371.0" type="qcurve" smooth="yes" name="inserted"/>
      <point x="168" y="457"/>
      <point x="127" y="655"/>
      <point x="127" y="748" type="qcurve" smooth="yes"/>
      <point x="127" y="858"/>
      <point x="174" y="1077"/>
      <point x="231.5" y="1164.0" type="qcurve" smooth="yes" name="inserted"/>
      <point x="289" y="1251"/>
      <point x="481" y="1362"/>
    </contour>
    <contour>
      <point x="530" y="270" type="qcurve"/>
      <point x="614" y="1239" type="line"/>
      <point x="516" y="1235"/>
      <point x="389" y="1143"/>
      <point x="352.0" y="1074.5" type="qcurve" smooth="yes" name="inserted"/>
      <point x="315" y="1006"/>
      <point x="287" y="842"/>
      <point x="287" y="762" type="qcurve" smooth="yes"/>
      <point x="287" y="684"/>
      <point x="309" y="524"/>
      <point x="338.0" y="456.5" type="qcurve" smooth="yes" name="inserted"/>
      <point x="367" y="389"/>
      <point x="459" y="289"/>
    </contour>
  </outline>
</glyph>
<glyph name="section" format="1">
  <advance width="1079"/>
  <unicode hex="00A7"/>
  <outline>
    <contour>
      <point x="705" y="207" type="qcurve"/>
      <point x="827" y="147"/>
      <point x="961" y="-10"/>
      <point x="961" y="-139" type="qcurve" smooth="yes"/>
      <point x="961" y="-223"/>
      <point x="897" y="-356"/>
      <point x="840.5" y="-402.5" type="qcurve" smooth="yes" name="inserted"/>
      <point x="784" y="-449"/>
      <point x="631" y="-498"/>
      <point x="541" y="-498" type="qcurve" smooth="yes"/>
      <point x="354" y="-498"/>
      <point x="131" y="-307"/>
      <point x="96" y="-127" type="qcurve"/>
      <point x="238" y="-92" type="line"/>
      <point x="272.5" y="-233.5" name="inserted"/>
      <point x="419.5" y="-375.0"/>
      <point x="532" y="-375" type="qcurve" smooth="yes"/>
      <point x="662" y="-375"/>
      <point x="799" y="-252"/>
      <point x="799" y="-152" type="qcurve" smooth="yes"/>
      <point x="799" y="-68"/>
      <point x="702" y="35"/>
      <point x="628.5" y="74.0" type="qcurve" smooth="yes" name="inserted"/>
      <point x="555" y="113"/>
      <point x="387" y="182"/>
      <point x="313.5" y="229.0" type="qcurve" smooth="yes" name="inserted"/>
      <point x="240" y="276"/>
      <point x="143" y="420"/>
      <point x="143" y="530" type="qcurve" smooth="yes"/>
      <point x="143" y="653"/>
      <point x="264" y="811"/>
      <point x="375" y="848" type="qcurve"/>
      <point x="252" y="907"/>
      <point x="119" y="1067"/>
      <point x="119" y="1196" type="qcurve" smooth="yes"/>
      <point x="119" y="1282"/>
      <point x="182" y="1415"/>
      <point x="238.5" y="1461.0" type="qcurve" smooth="yes" name="inserted"/>
      <point x="295" y="1507"/>
      <point x="449" y="1556"/>
      <point x="537" y="1556" type="qcurve" smooth="yes"/>
      <point x="721" y="1556"/>
      <point x="944" y="1364"/>
      <point x="983" y="1186" type="qcurve"/>
      <point x="840" y="1151" type="line"/>
      <point x="808.0" y="1290.5" name="inserted"/>
      <point x="662.5" y="1430.0"/>
      <point x="549" y="1430" type="qcurve" smooth="yes"/>
      <point x="420" y="1430"/>
      <point x="281" y="1309"/>
      <point x="281" y="1210" type="qcurve" smooth="yes"/>
      <point x="281" y="1126"/>
      <point x="377" y="1022"/>
      <point x="449.5" y="983.0" type="qcurve" smooth="yes" name="inserted"/>
      <point x="522" y="944"/>
      <point x="692" y="874"/>
      <point x="765.0" y="825.0" type="qcurve" smooth="yes" name="inserted"/>
      <point x="838" y="776"/>
      <point x="934" y="635"/>
      <point x="934" y="524" type="qcurve" smooth="yes"/>
      <point x="934" y="401"/>
      <point x="811" y="244"/>
    </contour>
    <contour>
      <point x="582" y="754" type="qcurve"/>
      <point x="571.5" y="756.0" name="inserted"/>
      <point x="546.5" y="758.0"/>
      <point x="532" y="758" type="qcurve" smooth="yes"/>
      <point x="426" y="758"/>
      <point x="305" y="637"/>
      <point x="305" y="545" type="qcurve" smooth="yes"/>
      <point x="305" y="457"/>
      <point x="399" y="348"/>
      <point x="492" y="303" type="qcurve"/>
      <point x="502.0" y="301.0" name="inserted"/>
      <point x="528.5" y="299.0"/>
      <point x="545" y="299" type="qcurve" smooth="yes"/>
      <point x="645" y="299"/>
      <point x="772" y="422"/>
      <point x="772" y="510" type="qcurve" smooth="yes"/>
      <point x="772" y="602"/>
      <point x="674" y="709"/>
    </contour>
  </outline>
</glyph>
<glyph name="dieresis" format="1">
  <advance width="987"/>
  <unicode hex="00A8"/>
  <outline>
    <contour>
      <point x="211" y="1395" type="qcurve" smooth="yes"/>
      <point x="195.5" y="1410.0" name="inserted"/>
      <point x="180.0" y="1445.5"/>
      <point x="180" y="1466" type="qcurve" smooth="yes"/>
      <point x="180" y="1507"/>
      <point x="242" y="1569"/>
      <point x="283" y="1569" type="qcurve" smooth="yes"/>
      <point x="324" y="1569"/>
      <point x="385" y="1507"/>
      <point x="385" y="1466" type="qcurve" smooth="yes"/>
      <point x="385" y="1425"/>
      <point x="324" y="1364"/>
      <point x="283" y="1364" type="qcurve" smooth="yes"/>
      <point x="262.5" y="1364.0" name="inserted"/>
      <point x="226.5" y="1379.5"/>
    </contour>
    <contour>
      <point x="631" y="1395" type="qcurve" smooth="yes"/>
      <point x="615.5" y="1410.0" name="inserted"/>
      <point x="600.0" y="1445.5"/>
      <point x="600" y="1466" type="qcurve" smooth="yes"/>
      <point x="600" y="1507"/>
      <point x="662" y="1569"/>
      <point x="702" y="1569" type="qcurve" smooth="yes"/>
      <point x="743" y="1569"/>
      <point x="805" y="1507"/>
      <point x="805" y="1466" type="qcurve" smooth="yes"/>
      <point x="805" y="1425"/>
      <point x="743" y="1364"/>
      <point x="702" y="1364" type="qcurve" smooth="yes"/>
      <point x="682.0" y="1364.0" name="inserted"/>
      <point x="646.5" y="1379.5"/>
    </contour>
  </outline>
</glyph>
<glyph name="uni00AD" format="1">
  <advance width="993"/>
  <unicode hex="00AD"/>
  <outline>
    <contour>
      <point x="856" y="588" type="line"/>
      <point x="135" y="588" type="line"/>
      <point x="135" y="713" type="line"/>
      <point x="856" y="713" type="line"/>
    </contour>
  </outline>
</glyph>
<glyph name="registered" format="1">
  <advance width="1475"/>
  <unicode hex="00AE"/>
  <outline>
    <contour>
      <point x="611" y="990" type="line"/>
      <point x="738" y="990" type="line" smooth="yes"/>
      <point x="806" y="990"/>
      <point x="874" y="1054"/>
      <point x="874" y="1120" type="qcurve" smooth="yes"/>
      <point x="874" y="1189"/>
      <point x="806" y="1251"/>
      <point x="738" y="1251" type="qcurve" smooth="yes"/>
      <point x="611" y="1251" type="line"/>
    </contour>
    <contour>
      <point x="611" y="933" type="line"/>
      <point x="611" y="670" type="line"/>
      <point x="541" y="670" type="line"/>
      <point x="541" y="1251" type="line"/>
      <point x="482" y="1251" type="line"/>
      <point x="482" y="1310" type="line"/>
      <point x="738" y="1310" type="line" smooth="yes"/>
      <point x="838" y="1310"/>
      <point x="942" y="1214"/>
      <point x="942" y="1120" type="qcurve" smooth="yes"/>
      <point x="942" y="1051" name="inserted"/>
      <point x="879" y="961"/>
      <point x="830" y="945" type="qcurve"/>
      <point x="850" y="936" name="inserted"/>
      <point x="876" y="903"/>
      <point x="886" y="879" type="qcurve" smooth="yes"/>
      <point x="955" y="729" type="line"/>
      <point x="1012" y="729" type="line"/>
      <point x="1013" y="670" type="line"/>
      <point x="924" y="670" type="line" smooth="yes"/>
      <point x="913" y="670" name="inserted"/>
      <point x="897" y="680"/>
      <point x="892" y="690" type="qcurve" smooth="yes"/>
      <point x="816" y="870" type="line" smooth="yes"/>
      <point x="808" y="890"/>
      <point x="789" y="914"/>
      <point x="777" y="921" type="qcurve" smooth="yes" name="inserted"/>
      <point x="765" y="928"/>
      <point x="729" y="933"/>
      <point x="705" y="933" type="qcurve" smooth="yes"/>
    </contour>
    <contour>
      <point x="133.0" y="1241.23025478" name="inserted"/>
      <point x="446.136324096" y="1578.0"/>
      <point x="737" y="1578" type="qcurve" smooth="yes"/>
      <point x="1025.0" y="1578.0"/>
      <point x="1341.0" y="1240.0"/>
      <point x="1341" y="982" type="qcurve" smooth="yes"/>
      <point x="1341.0" y="723.221276551"/>
      <point x="1002.20194762" y="368.0"/>
      <point x="737" y="368" type="qcurve" smooth="yes"/>
      <point x="467.0" y="368.0"/>
      <point x="133.0" y="724.0"/>
      <point x="133" y="982" type="qcurve" smooth="yes"/>
    </contour>
    <contour>
      <point x="211.0" y="747.255347273" name="inserted"/>
      <point x="507.733524505" y="435.0"/>
      <point x="737" y="435" type="qcurve" smooth="yes"/>
      <point x="970.213674156" y="435.0"/>
      <point x="1264.0" y="749.221886128"/>
      <point x="1264" y="980" type="qcurve" smooth="yes"/>
      <point x="1264.0" y="1214.82578466"/>
      <point x="982.137951739" y="1511.0"/>
      <point x="737" y="1511" type="qcurve" smooth="yes"/>
      <point x="486.117751435" y="1511.0"/>
      <point x="211.0" y="1213.18000287"/>
      <point x="211" y="980" type="qcurve" smooth="yes"/>
    </contour>
  </outline>
</glyph>
<glyph name="macron" format="1">
  <advance width="1174"/>
  <unicode hex="00AF"/>
  <outline>
    <contour>
      <point x="965" y="1633" type="line"/>
      <point x="229" y="1633" type="line"/>
      <point x="229" y="1760" type="line"/>
      <point x="965" y="1760" type="line"/>
    </contour>
  </outline>
</glyph>
<glyph name="uni00B2" format="1">
  <advance width="782"/>
  <unicode hex="00B2"/>
  <outline>
    <contour>
      <point x="248" y="1288" type="qcurve"/>
      <point x="123" y="1288" type="line"/>
      <point x="123" y="1411"/>
      <point x="264" y="1538"/>
      <point x="389" y="1538" type="qcurve" smooth="yes"/>
      <point x="518" y="1538"/>
      <point x="657" y="1425"/>
      <point x="657" y="1315" type="qcurve" smooth="yes"/>
      <point x="657" y="1241"/>
      <point x="567" y="1116"/>
      <point x="487" y="1034" type="qcurve" smooth="yes"/>
      <point x="285" y="829" type="line"/>
      <point x="670" y="829" type="line"/>
      <point x="670" y="731" type="line"/>
      <point x="113" y="731" type="line"/>
      <point x="113" y="823" type="line"/>
      <point x="397" y="1108" type="line" smooth="yes"/>
      <point x="434" y="1145"/>
      <point x="483" y="1198"/>
      <point x="498.5" y="1221.5" type="qcurve" smooth="yes" name="inserted"/>
      <point x="514" y="1245"/>
      <point x="526" y="1290"/>
      <point x="526" y="1315" type="qcurve" smooth="yes"/>
      <point x="526" y="1366"/>
      <point x="457" y="1438"/>
      <point x="391" y="1438" type="qcurve" smooth="yes"/>
      <point x="326" y="1438"/>
      <point x="248" y="1360"/>
    </contour>
  </outline>
</glyph>
<glyph name="uni00B3" format="1">
  <advance width="811"/>
  <unicode hex="00B3"/>
  <outline>
    <contour>
      <point x="340" y="1169" type="line" smooth="yes"/>
      <point x="436.0" y="1169.0" name="inserted"/>
      <point x="532.0" y="1241.0"/>
      <point x="532" y="1313" type="qcurve" smooth="yes"/>
      <point x="532" y="1370"/>
      <point x="457" y="1440"/>
      <point x="389" y="1440" type="qcurve" smooth="yes"/>
      <point x="324" y="1440"/>
      <point x="248" y="1358"/>
      <point x="248" y="1288" type="qcurve"/>
      <point x="129" y="1288" type="line"/>
      <point x="129" y="1401"/>
      <point x="270" y="1540"/>
      <point x="395" y="1540" type="qcurve" smooth="yes"/>
      <point x="520" y="1540"/>
      <point x="664" y="1425"/>
      <point x="664" y="1315" type="qcurve" smooth="yes"/>
      <point x="664" y="1255"/>
      <point x="598" y="1159"/>
      <point x="535" y="1135" type="qcurve"/>
      <point x="606" y="1114"/>
      <point x="682" y="1012"/>
      <point x="682" y="950" type="qcurve" smooth="yes"/>
      <point x="682" y="838"/>
      <point x="532" y="717"/>
      <point x="397" y="717" type="qcurve" smooth="yes"/>
      <point x="262" y="717"/>
      <point x="119" y="852"/>
      <point x="119" y="969" type="qcurve"/>
      <point x="240" y="969" type="line"/>
      <point x="240" y="899"/>
      <point x="317" y="815"/>
      <point x="391" y="815" type="qcurve" smooth="yes"/>
      <point x="467" y="815"/>
      <point x="551" y="885"/>
      <point x="551" y="948" type="qcurve" smooth="yes"/>
      <point x="551.0" y="1021.0" name="inserted"/>
      <point x="447.5" y="1094.0"/>
      <point x="344" y="1094" type="qcurve" smooth="yes"/>
      <point x="283" y="1094" type="line"/>
      <point x="283" y="1169" type="line"/>
    </contour>
  </outline>
</glyph>
<glyph name="acute" format="1">
  <advance width="643"/>
  <unicode hex="00B4"/>
  <outline>
    <contour>
      <point x="584" y="1450" type="line"/>
      <point x="184" y="1194" type="line"/>
      <point x="102" y="1320" type="line"/>
      <point x="496" y="1578" type="line"/>
    </contour>
  </outline>
</glyph>
<glyph name="paragraph" format="1">
  <advance width="1159"/>
  <unicode hex="00B6"/>
  <outline>
    <contour>
      <point x="821" y="1" type="line"/>
      <point x="936" y="1" type="line"/>
      <point x="936" y="1254" type="line"/>
      <point x="821" y="1254" type="line"/>
    </contour>
    <contour>
      <point x="584" y="1" type="line"/>
      <point x="698" y="1" type="line"/>
      <point x="698" y="1373" type="line"/>
      <point x="1057" y="1373" type="line"/>
      <point x="1057" y="1496" type="line"/>
      <point x="582" y="1496" type="line" smooth="yes"/>
      <point x="392" y="1496"/>
      <point x="110" y="1232"/>
      <point x="110" y="1040" type="qcurve" smooth="yes"/>
      <point x="110" y="847"/>
      <point x="394" y="579"/>
      <point x="584" y="579" type="qcurve"/>
    </contour>
  </outline>
</glyph>
<glyph name="ordmasculine" format="1">
  <advance width="834"/>
  <unicode hex="00BA"/>
  <outline>
    <contour>
      <point x="78" y="1124" type="qcurve" smooth="yes"/>
      <point x="78" y="1315"/>
      <point x="248" y="1518"/>
      <point x="408" y="1518" type="qcurve" smooth="yes"/>
      <point x="567" y="1518"/>
      <point x="756" y="1300"/>
      <point x="756" y="1110" type="qcurve" smooth="yes"/>
      <point x="756" y="924"/>
      <point x="582" y="719"/>
      <point x="422" y="719" type="qcurve" smooth="yes"/>
      <point x="262" y="719"/>
      <point x="78" y="938"/>
    </contour>
    <contour>
      <point x="416" y="821" type="qcurve" smooth="yes"/>
      <point x="519.5" y="821.0" name="inserted"/>
      <point x="623.0" y="969.5"/>
      <point x="623" y="1118" type="qcurve" smooth="yes"/>
      <point x="623" y="1249"/>
      <point x="510" y="1415"/>
      <point x="412" y="1415" type="qcurve" smooth="yes"/>
      <point x="313" y="1415"/>
      <point x="209" y="1260"/>
      <point x="209" y="1122" type="qcurve" smooth="yes"/>
      <point x="209" y="981"/>
      <point x="324" y="821"/>
    </contour>
  </outline>
</glyph>
<glyph name="AE" format="1">
  <advance width="1909"/>
  <unicode hex="00C6"/>
  <outline>
    <contour>
      <point x="1675.0" y="1495.0" type="line" smooth="yes"/>
      <point x="1707.0" y="1495.0" name="inserted"/>
      <point x="1739.0" y="1463.5"/>
      <point x="1739.0" y="1432.0" type="qcurve" smooth="yes"/>
      <point x="1739" y="1263" type="line"/>
      <point x="1615" y="1263" type="line"/>
      <point x="1616.0" y="1382.0" type="line"/>
      <point x="1063.0" y="1382.0" type="line"/>
      <point x="1063.0" y="750.0" type="line"/>
      <point x="1645.0" y="750.0" type="line"/>
      <point x="1645.0" y="637.0" type="line"/>
      <point x="1063.0" y="637.0" type="line"/>
      <point x="1063.0" y="111.0" type="line"/>
      <point x="1636.0" y="111.0" type="line"/>
      <point x="1637" y="211" type="line"/>
      <point x="1759" y="211" type="line"/>
      <point x="1759.0" y="63.0" type="line" smooth="yes"/>
      <point x="1759.0" y="31.5" name="inserted"/>
      <point x="1728" y="0"/>
      <point x="1696.0" y="0.0" type="qcurve" smooth="yes"/>
      <point x="899" y="0" type="line"/>
      <point x="899.0" y="0.0"/>
      <point x="899.0" y="637.0"/>
      <point x="899.0" y="637.0" type="qcurve"/>
      <point x="559" y="637" type="line"/>
      <point x="370" y="53" type="line" smooth="yes"/>
      <point x="361" y="27" name="inserted"/>
      <point x="325" y="0"/>
      <point x="297" y="0" type="qcurve" smooth="yes"/>
      <point x="137" y="0" type="line"/>
      <point x="137" y="121" type="line"/>
      <point x="235" y="121" type="line"/>
      <point x="688" y="1495" type="line"/>
    </contour>
    <contour>
      <point x="899.0" y="1382.0" type="line"/>
      <point x="803" y="1382" type="line"/>
      <point x="596" y="750" type="line"/>
      <point x="899.0" y="750.0" type="line"/>
    </contour>
  </outline>
</glyph>
<glyph name="Oslash" format="1">
  <advance width="1785"/>
  <unicode hex="00D8"/>
  <outline>
    <contour>
      <point x="1323" y="323" type="qcurve" smooth="yes"/>
      <point x="1233" y="233"/>
      <point x="1017" y="143"/>
      <point x="892" y="143" type="qcurve" smooth="yes"/>
      <point x="803" y="143"/>
      <point x="654" y="175"/>
      <point x="583" y="221" type="qcurve"/>
      <point x="1285" y="1244" type="line"/>
      <point x="1298" y="1234"/>
      <point x="1310" y="1224"/>
      <point x="1323" y="1213" type="qcurve" smooth="yes"/>
      <point x="1412" y="1126"/>
      <point x="1502" y="905"/>
      <point x="1502" y="774" type="qcurve" smooth="yes"/>
      <point x="1502" y="639"/>
      <point x="1412" y="412"/>
    </contour>
    <contour>
      <point x="283" y="774" type="qcurve" smooth="yes"/>
      <point x="283" y="905"/>
      <point x="373" y="1126"/>
      <point x="462" y="1213" type="qcurve" smooth="yes"/>
      <point x="550" y="1299"/>
      <point x="767" y="1387"/>
      <point x="892" y="1387" type="qcurve" smooth="yes"/>
      <point x="962" y="1387"/>
      <point x="1104" y="1346"/>
      <point x="1163" y="1319" type="qcurve"/>
      <point x="472" y="312" type="line"/>
      <point x="384" y="401"/>
      <point x="283" y="640"/>
    </contour>
    <contour>
      <point x="1434" y="1312" type="qcurve" smooth="yes"/>
      <point x="1415" y="1330"/>
      <point x="1389" y="1351"/>
      <point x="1369" y="1366" type="qcurve"/>
      <point x="1462" y="1494" type="line"/>
      <point x="1343" y="1575" type="line"/>
      <point x="1246" y="1440" type="line"/>
      <point x="1169" y="1477"/>
      <point x="985" y="1528"/>
      <point x="892" y="1528" type="qcurve" smooth="yes"/>
      <point x="733" y="1528"/>
      <point x="461" y="1419"/>
      <point x="350" y="1312" type="qcurve" smooth="yes"/>
      <point x="239" y="1205"/>
      <point x="127" y="934"/>
      <point x="127" y="774" type="qcurve" smooth="yes"/>
      <point x="127" y="610"/>
      <point x="239" y="334"/>
      <point x="350" y="224" type="qcurve" smooth="yes"/>
      <point x="356" y="218"/>
      <point x="381" y="193"/>
      <point x="387" y="188" type="qcurve"/>
      <point x="273" y="33" type="line"/>
      <point x="391" y="-48" type="line"/>
      <point x="501" y="100" type="line"/>
      <point x="589" y="45"/>
      <point x="779" y="2"/>
      <point x="892" y="2" type="qcurve" smooth="yes"/>
      <point x="1050" y="2"/>
      <point x="1323" y="113"/>
      <point x="1434" y="224" type="qcurve" smooth="yes"/>
      <point x="1545" y="334"/>
      <point x="1658" y="610"/>
      <point x="1658" y="774" type="qcurve" smooth="yes"/>
      <point x="1658" y="934"/>
      <point x="1545" y="1205"/>
    </contour>
  </outline>
</glyph>
<glyph name="dotlessi" format="1">
  <advance width="690"/>
  <unicode hex="0131"/>
  <outline>
    <contour>
      <point x="410" y="1108" type="qcurve" smooth="yes"/>
      <point x="410" y="251" type="line" smooth="yes"/>
      <point x="410" y="195" name="inserted"/>
      <point x="455" y="137"/>
      <point x="500" y="137" type="qcurve"/>
      <point x="605" y="137" type="line"/>
      <point x="605" y="-9" type="line"/>
      <point x="432" y="-9" type="line"/>
      <point x="341" y="-9" name="inserted"/>
      <point x="250" y="107"/>
      <point x="250" y="223" type="qcurve" smooth="yes"/>
      <point x="250" y="1049" type="line"/>
      <point x="127" y="1051" type="line"/>
      <point x="127" y="1171" type="line"/>
      <point x="348" y="1171" type="line" smooth="yes"/>
      <point x="379.0" y="1171.0" name="inserted"/>
      <point x="410.0" y="1139.5"/>
    </contour>
  </outline>
</glyph>
<glyph name="breve" format="1">
  <advance width="870"/>
  <unicode hex="02D8"/>
  <outline>
    <contour>
      <point x="578" y="1597" type="qcurve"/>
      <point x="694" y="1597" type="line"/>
      <point x="694" y="1460"/>
      <point x="561" y="1317"/>
      <point x="438" y="1317" type="qcurve" smooth="yes"/>
      <point x="315" y="1317"/>
      <point x="176" y="1468"/>
      <point x="176" y="1597" type="qcurve"/>
      <point x="291" y="1597" type="line"/>
      <point x="291" y="1530"/>
      <point x="371" y="1446"/>
      <point x="434" y="1446" type="qcurve" smooth="yes"/>
      <point x="506.0" y="1446.0" name="inserted"/>
      <point x="578.0" y="1521.5"/>
    </contour>
  </outline>
</glyph>
<glyph name="dotaccent" format="1">
  <advance width="598"/>
  <unicode hex="02D9"/>
  <outline>
    <contour>
      <point x="297" y="1362" type="qcurve" smooth="yes"/>
      <point x="256" y="1362"/>
      <point x="195" y="1423"/>
      <point x="195" y="1464" type="qcurve" smooth="yes"/>
      <point x="195" y="1507"/>
      <point x="256" y="1571"/>
      <point x="297" y="1571" type="qcurve" smooth="yes"/>
      <point x="340" y="1571"/>
      <point x="403" y="1507"/>
      <point x="403" y="1464" type="qcurve" smooth="yes"/>
      <point x="403" y="1423"/>
      <point x="340" y="1362"/>
    </contour>
  </outline>
</glyph>
<glyph name="ogonek" format="1">
  <advance width="680"/>
  <unicode hex="02DB"/>
  <outline>
    <contour>
      <point x="201" y="-223" type="qcurve" smooth="yes"/>
      <point x="201" y="-272"/>
      <point x="262" y="-330"/>
      <point x="317" y="-330" type="qcurve" smooth="yes"/>
      <point x="369.5" y="-330.0" name="inserted"/>
      <point x="458.0" y="-265.5"/>
      <point x="494" y="-201" type="qcurve"/>
      <point x="571" y="-250" type="line"/>
      <point x="532" y="-332"/>
      <point x="387" y="-440"/>
      <point x="295" y="-440" type="qcurve" smooth="yes"/>
      <point x="203" y="-440"/>
      <point x="94" y="-342"/>
      <point x="94" y="-250" type="qcurve" smooth="yes"/>
      <point x="94" y="-164"/>
      <point x="188" y="-47"/>
      <point x="293" y="16" type="qcurve" smooth="yes"/>
      <point x="467" y="123" type="line"/>
      <point x="504" y="61" type="line"/>
      <point x="315" y="-55" type="line" smooth="yes"/>
      <point x="258.0" y="-91.0" name="inserted"/>
      <point x="201.0" y="-175.0"/>
    </contour>
  </outline>
</glyph>
<glyph name="endash" format="1">
  <advance width="1174"/>
  <unicode hex="2013"/>
  <outline>
    <contour>
      <point x="1036" y="594" type="line"/>
      <point x="135" y="594" type="line"/>
      <point x="135" y="707" type="line"/>
      <point x="1036" y="707" type="line"/>
    </contour>
  </outline>
</glyph>
<glyph name="quoteleft" format="1">
  <advance width="477"/>
  <unicode hex="2018"/>
  <outline>
    <contour>
      <point x="96" y="1192" type="qcurve" smooth="yes"/>
      <point x="96" y="1251"/>
      <point x="135" y="1362"/>
      <point x="168.0" y="1411.0" type="qcurve" smooth="yes" name="inserted"/>
      <point x="201" y="1460"/>
      <point x="285" y="1544"/>
      <point x="332" y="1579" type="qcurve"/>
      <point x="381" y="1522" type="line"/>
      <point x="332.0" y="1476.0" name="inserted"/>
      <point x="283.0" y="1381.5"/>
      <point x="283" y="1333" type="qcurve" smooth="yes"/>
      <point x="283" y="1305"/>
      <point x="307" y="1227"/>
      <point x="307" y="1190" type="qcurve" smooth="yes"/>
      <point x="307" y="1151"/>
      <point x="252" y="1090"/>
      <point x="201" y="1090" type="qcurve" smooth="yes"/>
      <point x="152" y="1090"/>
      <point x="96" y="1149"/>
    </contour>
  </outline>
</glyph>
<glyph name="quotedblbase" format="1">
  <advance width="870"/>
  <unicode hex="201E"/>
  <outline>
    <contour>
      <point x="324" y="195" type="qcurve"/>
      <point x="343.0" y="184.5" name="inserted"/>
      <point x="367.5" y="142.5"/>
      <point x="373" y="111" type="qcurve"/>
      <point x="371" y="61" type="line"/>
      <point x="367" y="45"/>
      <point x="354" y="-20"/>
      <point x="326" y="-80" type="qcurve"/>
      <point x="315" y="-100" type="line"/>
      <point x="311" y="-106"/>
      <point x="293" y="-141"/>
      <point x="274.5" y="-164.5" type="qcurve" smooth="yes" name="inserted"/>
      <point x="256" y="-188"/>
      <point x="197" y="-248"/>
      <point x="152" y="-281" type="qcurve"/>
      <point x="100" y="-223" type="line"/>
      <point x="125" y="-199" type="line"/>
      <point x="166" y="-143"/>
      <point x="190" y="-82"/>
      <point x="190" y="-45" type="qcurve" smooth="yes"/>
      <point x="190" y="-31" type="line"/>
      <point x="180" y="16" type="line"/>
      <point x="168" y="47"/>
      <point x="162" y="76"/>
      <point x="162" y="86" type="qcurve" smooth="yes"/>
      <point x="162" y="129"/>
      <point x="201" y="209"/>
      <point x="262" y="209" type="qcurve" smooth="yes"/>
      <point x="291" y="209"/>
      <point x="322" y="195"/>
    </contour>
    <contour>
      <point x="692" y="162" type="line"/>
      <point x="690" y="158"/>
      <point x="709" y="133"/>
      <point x="707" y="102" type="qcurve" smooth="yes"/>
      <point x="705" y="61" type="line"/>
      <point x="698.5" y="22.5" name="inserted"/>
      <point x="673.5" y="-53.0"/>
      <point x="655" y="-90" type="qcurve"/>
      <point x="616" y="-150" type="line"/>
      <point x="608" y="-160"/>
      <point x="592" y="-182"/>
      <point x="582" y="-193" type="qcurve"/>
      <point x="528" y="-246" type="line"/>
      <point x="485" y="-281" type="line"/>
      <point x="434" y="-223" type="line"/>
      <point x="436.0" y="-220.0" name="inserted"/>
      <point x="444.5" y="-212.0"/>
      <point x="451" y="-207" type="qcurve"/>
      <point x="479" y="-180"/>
      <point x="510" y="-117"/>
      <point x="524" y="-76" type="qcurve"/>
      <point x="524" y="-66" type="line"/>
      <point x="525.0" y="-62.5" name="inserted"/>
      <point x="526.0" y="-52.0"/>
      <point x="526" y="-45" type="qcurve"/>
      <point x="524" y="-16" type="line"/>
      <point x="520" y="-10"/>
      <point x="510" y="18"/>
      <point x="506.0" y="34.5" type="qcurve" smooth="yes" name="inserted"/>
      <point x="502" y="51"/>
      <point x="498" y="82"/>
      <point x="498" y="90" type="qcurve" smooth="yes"/>
      <point x="498" y="102" type="line" smooth="yes"/>
      <point x="498.0" y="119.5" name="inserted"/>
      <point x="508.0" y="153.5"/>
      <point x="518" y="170" type="qcurve"/>
      <point x="537" y="188" type="line"/>
      <point x="555" y="207"/>
      <point x="588" y="207"/>
      <point x="602" y="209" type="qcurve"/>
      <point x="612" y="209" type="line"/>
      <point x="633" y="205"/>
      <point x="655" y="203"/>
      <point x="678" y="180" type="qcurve"/>
    </contour>
  </outline>
</glyph>
<glyph name="ellipsis" format="1">
  <advance width="1610"/>
  <unicode hex="2026"/>
  <outline>
    <contour>
      <point x="266" y="-16" type="qcurve" smooth="yes"/>
      <point x="221" y="-16"/>
      <point x="156" y="49"/>
      <point x="156" y="94" type="qcurve" smooth="yes"/>
      <point x="156" y="141"/>
      <point x="223" y="209"/>
      <point x="268" y="209" type="qcurve" smooth="yes"/>
      <point x="313" y="209"/>
      <point x="381" y="141"/>
      <point x="381" y="96" type="qcurve" smooth="yes"/>
      <point x="381" y="51"/>
      <point x="313" y="-16"/>
    </contour>
    <contour>
      <point x="803" y="-16" type="qcurve" smooth="yes"/>
      <point x="758" y="-16"/>
      <point x="692" y="49"/>
      <point x="692" y="94" type="qcurve" smooth="yes"/>
      <point x="692" y="141"/>
      <point x="760" y="209"/>
      <point x="805" y="209" type="qcurve" smooth="yes"/>
      <point x="850" y="209"/>
      <point x="918" y="141"/>
      <point x="918" y="96" type="qcurve" smooth="yes"/>
      <point x="918" y="51"/>
      <point x="850" y="-16"/>
    </contour>
    <contour>
      <point x="1339" y="-16" type="qcurve" smooth="yes"/>
      <point x="1294" y="-16"/>
      <point x="1229" y="49"/>
      <point x="1229" y="94" type="qcurve" smooth="yes"/>
      <point x="1229" y="141"/>
      <point x="1296" y="209"/>
      <point x="1341" y="209" type="qcurve" smooth="yes"/>
      <point x="1386" y="209"/>
      <point x="1454" y="141"/>
      <point x="1454" y="96" type="qcurve" smooth="yes"/>
      <point x="1454" y="51"/>
      <point x="1386" y="-16"/>
    </contour>
  </outline>
</glyph>
<glyph name="perthousand" format="1">
  <advance width="2423"/>
  <unicode hex="2030"/>
  <outline>
    <contour>
      <point x="662" y="-135" type="line"/>
      <point x="535" y="-135" type="line"/>
      <point x="1026" y="1628" type="line"/>
      <point x="1153" y="1628" type="line"/>
    </contour>
    <contour>
      <point x="123" y="1135" type="qcurve" smooth="yes"/>
      <point x="123" y="1327"/>
      <point x="281" y="1538"/>
      <point x="422" y="1538" type="qcurve" smooth="yes"/>
      <point x="565" y="1538"/>
      <point x="733" y="1315"/>
      <point x="733" y="1118" type="qcurve" smooth="yes"/>
      <point x="733" y="926"/>
      <point x="578" y="715"/>
      <point x="434" y="715" type="qcurve" smooth="yes"/>
      <point x="291" y="715"/>
      <point x="123" y="942"/>
    </contour>
    <contour>
      <point x="428" y="815" type="qcurve" smooth="yes"/>
      <point x="514.0" y="815.0" name="inserted"/>
      <point x="600.0" y="970.5"/>
      <point x="600" y="1126" type="qcurve" smooth="yes"/>
      <point x="600" y="1262"/>
      <point x="508" y="1438"/>
      <point x="424" y="1438" type="qcurve" smooth="yes"/>
      <point x="344" y="1438"/>
      <point x="254" y="1276"/>
      <point x="254" y="1133" type="qcurve" smooth="yes"/>
      <point x="254" y="985"/>
      <point x="350" y="815"/>
    </contour>
    <contour>
      <point x="954" y="403" type="qcurve" smooth="yes"/>
      <point x="954" y="596"/>
      <point x="1112" y="807"/>
      <point x="1253" y="807" type="qcurve" smooth="yes"/>
      <point x="1397" y="807"/>
      <point x="1565" y="584"/>
      <point x="1565" y="387" type="qcurve" smooth="yes"/>
      <point x="1565" y="195"/>
      <point x="1409" y="-16"/>
      <point x="1266" y="-16" type="qcurve" smooth="yes"/>
      <point x="1122" y="-16"/>
      <point x="954" y="211"/>
    </contour>
    <contour>
      <point x="1260" y="84" type="qcurve" smooth="yes"/>
      <point x="1346.0" y="84.0" name="inserted"/>
      <point x="1432.0" y="239.5"/>
      <point x="1432" y="395" type="qcurve" smooth="yes"/>
      <point x="1432" y="530"/>
      <point x="1339" y="707"/>
      <point x="1255" y="707" type="qcurve" smooth="yes"/>
      <point x="1176" y="707"/>
      <point x="1085" y="545"/>
      <point x="1085" y="401" type="qcurve" smooth="yes"/>
      <point x="1085" y="254"/>
      <point x="1182" y="84"/>
    </contour>
    <contour>
      <point x="1690" y="403" type="qcurve" smooth="yes"/>
      <point x="1690" y="596"/>
      <point x="1847" y="807"/>
      <point x="1989" y="807" type="qcurve" smooth="yes"/>
      <point x="2132" y="807"/>
      <point x="2300" y="584"/>
      <point x="2300" y="387" type="qcurve" smooth="yes"/>
      <point x="2300" y="195"/>
      <point x="2144" y="-16"/>
      <point x="2001" y="-16" type="qcurve" smooth="yes"/>
      <point x="1858" y="-16"/>
      <point x="1690" y="211"/>
    </contour>
    <contour>
      <point x="1995" y="84" type="qcurve" smooth="yes"/>
      <point x="2081.0" y="84.0" name="inserted"/>
      <point x="2167.0" y="239.5"/>
      <point x="2167" y="395" type="qcurve" smooth="yes"/>
      <point x="2167" y="530"/>
      <point x="2075" y="707"/>
      <point x="1991" y="707" type="qcurve" smooth="yes"/>
      <point x="1911" y="707"/>
      <point x="1821" y="545"/>
      <point x="1821" y="401" type="qcurve" smooth="yes"/>
      <point x="1821" y="254"/>
      <point x="1917" y="84"/>
    </contour>
  </outline>
</glyph>
<glyph name="guilsinglleft" format="1">
  <advance width="549"/>
  <unicode hex="2039"/>
  <outline>
    <contour>
      <point x="367" y="1018" type="line"/>
      <point x="468" y="920" type="line"/>
      <point x="242" y="657" type="line"/>
      <point x="465" y="403" type="line"/>
      <point x="367" y="301" type="line"/>
      <point x="96" y="610" type="line"/>
      <point x="96" y="705" type="line"/>
    </contour>
  </outline>
</glyph>
<glyph name="trademark" format="1">
  <advance width="1784"/>
  <unicode hex="2122"/>
  <outline>
    <contour>
      <point x="460" y="692" type="line"/>
      <point x="359" y="692" type="line"/>
      <point x="359" y="1489" type="line"/>
      <point x="140" y="1489" type="line"/>
      <point x="140" y="1575" type="line"/>
      <point x="680" y="1575" type="line"/>
      <point x="680" y="1489" type="line"/>
      <point x="460" y="1489" type="line"/>
    </contour>
    <contour>
      <point x="924" y="1575" type="line" smooth="yes"/>
      <point x="945" y="1575" name="inserted"/>
      <point x="969" y="1556"/>
      <point x="973" y="1536" type="qcurve"/>
      <point x="1178" y="919" type="line"/>
      <point x="1391" y="1538" type="line" smooth="yes"/>
      <point x="1398" y="1557" name="inserted"/>
      <point x="1423" y="1575"/>
      <point x="1442" y="1575" type="qcurve" smooth="yes"/>
      <point x="1550" y="1575" type="line"/>
      <point x="1550" y="692" type="line"/>
      <point x="1456" y="692" type="line"/>
      <point x="1456" y="1438" type="line"/>
      <point x="1235" y="788" type="line"/>
      <point x="1120" y="788" type="line"/>
      <point x="909" y="1438" type="line"/>
      <point x="909" y="692" type="line"/>
      <point x="816" y="692" type="line"/>
      <point x="816" y="1575" type="line"/>
    </contour>
  </outline>
</glyph>
<glyph name="uniFB02" format="1">
  <advance width="1423"/>
  <unicode hex="FB02"/>
  <outline>
    <contour>
      <point x="1143" y="1513" type="qcurve" smooth="yes"/>
      <point x="1143" y="250" type="line" smooth="yes"/>
      <point x="1143" y="194" name="inserted"/>
      <point x="1187" y="138"/>
      <point x="1231" y="138" type="qcurve"/>
      <point x="1335" y="138" type="line"/>
      <point x="1335" y="0" type="line"/>
      <point x="1178" y="0" type="line"/>
      <point x="1080" y="0" name="inserted"/>
      <point x="981" y="116"/>
      <point x="981" y="232" type="qcurve" smooth="yes"/>
      <point x="981" y="1454" type="line"/>
      <point x="874" y="1454" type="line"/>
      <point x="862" y="1434" type="line"/>
      <point x="825.0" y="1458.5" name="inserted"/>
      <point x="732.0" y="1483.0"/>
      <point x="676" y="1483" type="qcurve" smooth="yes"/>
      <point x="566.5" y="1483.0" name="inserted"/>
      <point x="448.5" y="1327.0"/>
      <point x="440" y="1171" type="qcurve"/>
      <point x="682" y="1171" type="line"/>
      <point x="682" y="1059" type="line"/>
      <point x="440" y="1059" type="line"/>
      <point x="440.0" y="1059.0"/>
      <point x="440" y="0"/>
      <point x="440" y="0" type="qcurve"/>
      <point x="135" y="0" type="line"/>
      <point x="135" y="121" type="line"/>
      <point x="279" y="121" type="line"/>
      <point x="279" y="1059" type="line"/>
      <point x="135" y="1059" type="line"/>
      <point x="135" y="1171" type="line"/>
      <point x="279" y="1171" type="line"/>
      <point x="289" y="1386"/>
      <point x="477" y="1608"/>
      <point x="680" y="1608" type="qcurve" smooth="yes"/>
      <point x="727.0" y="1608.0" name="inserted"/>
      <point x="816" y="1594"/>
      <point x="858" y="1577" type="qcurve"/>
      <point x="1081" y="1577" type="line" smooth="yes"/>
      <point x="1112" y="1577" name="inserted"/>
      <point x="1143.0" y="1545.0"/>
    </contour>
  </outline>
</glyph>
